<svg xmlns="http://www.w3.org/2000/svg" xml:space="preserve" width="1024" height="1024"><path d="m 152.57,131.78 c -21.86,-1.36 -46.44,12.77 -61.46,37.58 -19.31,31.92 -15.63,69.66 7.99,85.3 -2.65,-0.93 -5.21,-2.14 -7.67,-3.63 -24.9,-15.07 -29.46,-53.09 -10.19,-84.93 17.14,-28.31 47.35,-42.2 71.33,-34.32 z" class="st1" transform="translate(-150.666 -457.174)scale(4.93122)"/><path fill="#95d0d4" stroke="#fff" stroke-miterlimit="10" stroke-width=".992" d="m 182.11,197.11 c 0,29.37 -23.81,53.17 -53.18,53.17 -15.32,0 -29.14,-6.48 -38.84,-16.85 -8.9,-9.5 -14.34,-22.27 -14.34,-36.32 0,-29.37 23.81,-53.18 53.18,-53.18 7.62,0 14.85,1.6 21.4,4.48 18.71,8.24 31.78,26.94 31.78,48.7 z" transform="translate(-150.666 -457.174)scale(4.93122)"/><path fill="#c0e7ea" d="m 164.67,184.73 c 0,29.37 -23.81,53.18 -53.18,53.18 -7.62,0 -14.85,-1.6 -21.4,-4.48 -8.9,-9.5 -14.34,-22.27 -14.34,-36.32 0,-29.37 23.81,-53.18 53.18,-53.18 7.62,0 14.85,1.6 21.4,4.48 8.9,9.5 14.34,22.27 14.34,36.32 z" transform="translate(-150.666 -457.174)scale(4.93122)"/><path fill="none" stroke="#fff" stroke-miterlimit="10" stroke-width=".992" d="m 182.11,197.11 c 0,29.37 -23.81,53.17 -53.18,53.17 -15.32,0 -29.14,-6.48 -38.84,-16.85 -8.9,-9.5 -14.34,-22.27 -14.34,-36.32 0,-29.37 23.81,-53.18 53.18,-53.18 7.62,0 14.85,1.6 21.4,4.48 18.71,8.24 31.78,26.94 31.78,48.7 z" transform="translate(-150.666 -457.174)scale(4.93122)"/><g transform="translate(-150.666 -457.174)scale(4.93122)"><ellipse cx="88.96" cy="181.6" class="st5" rx="6.92" ry="2.97" transform="rotate(-84.641 88.967 181.606)"/><ellipse cx="121.17" cy="180.72" class="st5" rx="6.92" ry="2.97" transform="rotate(-84.641 121.179 180.721)"/><path fill="#646464" d="m 95.29,192.33 c -0.05,-0.65 0.15,-1.29 0.57,-1.8 0.78,-0.95 2.39,-2.29 5.38,-2.44 2.63,-0.13 4.35,0.64 5.35,1.35 0.75,0.52 1.13,1.43 1.03,2.33 -0.34,3.22 -1.67,11.43 -6.33,11.47 -4.83,0.05 -5.81,-8.2 -6,-10.91 z"/></g><path d="m 160.99,112.95 -2.71,3.63 c -2.62,-0.65 -5.29,-1.11 -8,-1.38 l 2.56,-14.86 c 0.06,0 0.11,0 0.17,0.01 h 0.01 l 7.9,6.13 -0.1,6.35 z" class="st7" transform="translate(-150.666 -457.174)scale(4.93122)"/><path d="M57.82 222.62 45.5 217.45v-.04l11.74-1.7c.09 2.34.28 4.64.58 6.91zM71.85 255.82l-.18.15-1.26 2.44-.09-.04-5.18 3.29-9.22-3.6c-.04-.06-.08-.12-.11-.19l11.91-7.53c1.26 1.92 2.63 3.75 4.13 5.48z" class="st1" transform="translate(-150.666 -457.174)scale(4.93122)"/><path d="m 197.48,116.9 -1.77,2.55 -6.95,10 -0.01,0.01 -0.73,0.4 -8.57,-2.6 9.65,-13.78 h 0.01 l 1.12,-1.61 c 0.12,0.06 0.24,0.13 0.35,0.21 l 0.01,0.01 z" class="st7" transform="translate(-150.666 -457.174)scale(4.93122)"/><path fill="#32bbcb" stroke="#fff" stroke-linecap="round" stroke-linejoin="round" stroke-miterlimit="10" stroke-width=".992" d="M211.29 145.75 219.75 151.64 213.91 155.67 207.49 160.1 196.89 154.8 196.89 154.78 211.03 145.57z" transform="translate(-150.666 -457.174)scale(4.93122)"/><path fill="#019cb2" stroke="#fff" stroke-linecap="round" stroke-linejoin="round" stroke-miterlimit="10" stroke-width=".992" d="m 221.77,194.58 v 0.01 c -0.02,0.09 -0.03,0.17 -0.05,0.26 l -8.72,3.05 -5,1.74 -9.23,-7.76 c 0,-0.02 0.01,-0.03 0,-0.05 l 15.99,-3.77 0.19,-0.04 z" transform="translate(-150.666 -457.174)scale(4.93122)"/><path d="M202.83 242.01 194.3 240.67 189.81 239.96 181.85 233.24 196.4 237.46z" class="st10" transform="translate(-150.666 -457.174)scale(4.93122)"/><path d="m 145.6,275.68 -1.82,7.56 -1.45,6.03 c -0.03,0.01 -0.05,0.02 -0.07,0.02 l -6.76,-3.03 -0.35,-0.16 -0.57,-15.64 c 0.04,-0.01 0.08,-0.02 0.12,-0.03 z" class="st1" transform="translate(-150.666 -457.174)scale(4.93122)"/><path d="m 150.12,272.8 -4.52,2.88 -10.9,-5.25 c 3.95,-1.36 7.87,-3.05 11.72,-5.08 l 0.05,0.1 z" class="st1" transform="translate(-150.666 -457.174)scale(4.93122)"/><path d="M181.71 256.44 180.91 256.16 173.89 243.47 184.38 248.02 185.94 251.69 189.05 259z" class="st10" transform="translate(-150.666 -457.174)scale(4.93122)"/><path d="m 189.81,239.96 -5.43,8.06 -10.49,-4.55 -0.03,-0.02 c 2.8,-3.19 5.46,-6.61 7.94,-10.24 l 0.05,0.03 z" class="st10" transform="translate(-150.666 -457.174)scale(4.93122)"/><path d="m 214.76,188.06 c 1.3,-9.8 1.24,-19.41 -0.15,-28.46 l -7.12,0.55 -9.06,0.71 c -0.43,-2.06 -0.94,-4.08 -1.54,-6.06 l -0.01,-0.01 h 0.01 v -0.01 l 14.14,-9.21 0.26,0.18 c -2.72,-8.2 -6.71,-15.69 -11.92,-22.14 l -10.61,5.84 -0.01,0.01 -0.36,0.51 -0.37,-0.11 -3.77,2.07 -0.08,0.07 c -1.49,-1.64 -3.09,-3.19 -4.8,-4.64 l 0.08,-0.1 9.65,-13.78 h 0.01 l 1.12,-1.61 c -4.47,-2.66 -19.14,-8.19 -21.77,-8.95 l -7.47,10.03 -2.71,3.63 c -2.62,-0.65 -5.29,-1.11 -8,-1.38 l 2.56,-14.86 c -9.46,-0.43 -19.23,1.03 -28.86,4.24 l -1.43,13.84 0.09,0.27 c -2.15,0.73 -4.29,1.56 -6.41,2.5 -1.64,0.71 -3.27,1.49 -4.88,2.33 l -0.23,-0.43 -4.9,-10.53 C 97.39,117.61 88.94,124.14 81.25,132 l 0.18,0.18 4.08,11.13 c -2.91,3.12 -5.69,6.48 -8.29,10.06 l -0.08,-0.03 -9.5,-4.83 c -1.17,1.7 -2.31,3.43 -3.42,5.21 -4.08,6.54 -7.48,13.26 -10.21,20.05 l 0.07,0.03 9.36,5.09 c -1.24,3.27 -2.28,6.54 -3.14,9.82 v 0.01 l -11.57,1.37 c -2.28,9.25 -3.34,18.45 -3.23,27.32 l 11.74,-1.7 c 0.09,2.34 0.28,4.64 0.58,6.91 0.09,0.7 0.19,1.39 0.3,2.08 l -11.1,8.62 c 1.64,8.87 4.58,17.17 8.79,24.55 l 11.91,-7.53 c 1.26,1.92 2.63,3.75 4.13,5.48 l -0.18,0.15 -1.26,2.44 -5.84,11.3 -0.09,0.08 c 3.74,4.08 8.03,7.68 12.85,10.69 3.19,1.99 6.5,3.66 9.92,5.01 l 0.06,-0.15 7.76,-13.74 0.04,-0.12 c 2.98,0.98 6.03,1.7 9.15,2.14 l 0.03,2.31 0.16,13.39 1.8,0.5 h 0.01 c 9.55,0.73 19.45,-0.52 29.24,-3.56 l -0.35,-0.16 -0.57,-15.64 v -0.09 l 0.12,0.06 c 3.95,-1.36 7.87,-3.05 11.72,-5.08 l 0.05,0.1 3.65,7.35 2.74,5.53 0.77,0.14 c 10,-5.52 19.54,-12.93 28.08,-22.03 l -0.8,-0.28 -7.02,-12.69 -0.03,-0.02 c 2.8,-3.19 5.46,-6.61 7.94,-10.24 l 0.05,0.03 14.55,4.22 c 0.2,-0.29 0.38,-0.59 0.57,-0.89 5.73,-9.18 10.12,-18.72 13.2,-28.31 l -0.28,-0.16 -4.19,-1.82 -9.19,-3.99 -0.1,-0.03 c 0.99,-3.47 1.78,-6.93 2.36,-10.38 l -0.05,-0.04 0.05,-0.01 z m -43.37,32.6 c -17.37,28.7 -48.16,42.57 -72.29,34 -2.65,-0.93 -5.21,-2.14 -7.67,-3.63 -24.9,-15.07 -29.46,-53.09 -10.19,-84.93 17.14,-28.31 47.35,-42.2 71.33,-34.32 0.01,0 0.02,0 0.02,0 2.98,0.98 5.86,2.3 8.61,3.96 24.9,15.07 29.46,53.09 10.19,84.92 z" class="st7" transform="translate(-150.666 -457.174)scale(4.93122)"/><path fill="#3fcadd" stroke="#fff" stroke-linecap="round" stroke-linejoin="round" stroke-miterlimit="10" stroke-width=".992" d="m 116.23,121.19 c -1.64,0.71 -3.27,1.49 -4.88,2.33 l -0.23,-0.43 -4.9,-10.53 c 0.05,-0.02 0.09,-0.05 0.14,-0.08 l 9.65,8.21 z" transform="translate(-150.666 -457.174)scale(4.93122)"/><path d="m 104.29,275.93 -8.84,12.13 -0.01,0.05 c -0.95,-0.23 -1.9,-0.49 -2.84,-0.77 -1.81,-0.53 -3.59,-1.15 -5.35,-1.85 l 0.06,-0.15 7.76,-13.74 0.04,-0.12 c 2.98,0.98 6.03,1.7 9.15,2.14 z" class="st1" transform="translate(-150.666 -457.174)scale(4.93122)"/><path fill="#4acada" stroke="#fff" stroke-linecap="round" stroke-linejoin="round" stroke-miterlimit="10" stroke-width=".992" d="m 188.02,129.86 -3.77,2.07 -0.08,0.07 c -1.49,-1.64 -3.09,-3.19 -4.8,-4.64 l 0.08,-0.1 z" transform="translate(-150.666 -457.174)scale(4.93122)"/><path d="m 142.26,289.29 c -8.54,2.56 -17.15,3.76 -25.52,3.48 v -0.04 l -10.48,-2.91 c 9.55,0.73 19.45,-0.52 29.24,-3.56 z" class="st1" transform="translate(-150.666 -457.174)scale(4.93122)"/><path d="m 189.29,259.22 c -8,8.53 -16.89,15.57 -26.2,20.97 h -0.01 l -9.45,-1.72 c 10,-5.52 19.54,-12.93 28.08,-22.03 l 7.34,2.56 z" class="st10" transform="translate(-150.666 -457.174)scale(4.93122)"/><path fill="#009cb3" stroke="#fff" stroke-linecap="round" stroke-linejoin="round" stroke-miterlimit="10" stroke-width=".992" d="m 208,199.64 c 0,0 -1.33,5.11 -2.27,6.56 l -0.03,0.08 -9.19,-3.99 -0.1,-0.03 c 0.99,-3.47 1.78,-6.93 2.36,-10.38 z" transform="translate(-150.666 -457.174)scale(4.93122)"/><path fill="#33bccc" stroke="#fff" stroke-linecap="round" stroke-linejoin="round" stroke-miterlimit="10" stroke-width=".992" d="m 221.77,194.58 -6.82,-6.56 -0.19,0.04 c 1.3,-9.8 1.24,-19.41 -0.15,-28.46 l 0.08,-0.01 7.94,6.16 c 1.08,9.22 0.8,18.95 -0.86,28.83 z" transform="translate(-150.666 -457.174)scale(4.93122)"/><path fill="#43ccd4" stroke="#fff" stroke-linecap="round" stroke-linejoin="round" stroke-miterlimit="10" stroke-width=".992" d="m 207.49,160.1 v 0.05 l -9.06,0.71 c -0.43,-2.06 -0.94,-4.08 -1.54,-6.06 z" transform="translate(-150.666 -457.174)scale(4.93122)"/><path fill="#4ac6d8" stroke="#fff" stroke-linecap="round" stroke-linejoin="round" stroke-miterlimit="10" stroke-width=".992" d="m 219.82,151.62 -0.07,0.02 -8.46,-5.89 c -2.72,-8.2 -6.71,-15.69 -11.92,-22.14 l 0.04,-0.02 11.73,8.62 c 3.77,5.88 6.67,12.41 8.68,19.41 z" transform="translate(-150.666 -457.174)scale(4.93122)"/><path fill="#039bb2" stroke="#fff" stroke-linecap="round" stroke-linejoin="round" stroke-miterlimit="10" stroke-width=".992" d="m 217.33,212.28 c -3.05,9.17 -7.31,18.29 -12.79,27.07 -0.56,0.9 -1.13,1.78 -1.71,2.66 l -6.43,-4.55 c 0.2,-0.29 0.38,-0.59 0.57,-0.89 5.73,-9.18 10.12,-18.72 13.2,-28.31 l 6.92,3.94 z" transform="translate(-150.666 -457.174)scale(4.93122)"/></svg>