<svg xmlns="http://www.w3.org/2000/svg" xml:space="preserve" width="1024" height="414"><g transform="translate(-47.55 -162.31)scale(1.8791)"><path d="m152.57 131.78c-21.86-1.36-46.44 12.77-61.46 37.58-19.31 31.92-15.63 69.66 7.99 85.3-2.65-0.93-5.21-2.14-7.67-3.63-24.9-15.07-29.46-53.09-10.19-84.93 17.14-28.31 47.35-42.2 71.33-34.32z" class="st1"/><path fill="#95d0d4" stroke="#fff" stroke-miterlimit="10" stroke-width=".992" d="m182.11 197.11c0 29.37-23.81 53.17-53.18 53.17-15.32 0-29.14-6.48-38.84-16.85-8.9-9.5-14.34-22.27-14.34-36.32 0-29.37 23.81-53.18 53.18-53.18 7.62 0 14.85 1.6 21.4 4.48 18.71 8.24 31.78 26.94 31.78 48.7z"/><path fill="#c0e7ea" d="m164.67 184.73c0 29.37-23.81 53.18-53.18 53.18-7.62 0-14.85-1.6-21.4-4.48-8.9-9.5-14.34-22.27-14.34-36.32 0-29.37 23.81-53.18 53.18-53.18 7.62 0 14.85 1.6 21.4 4.48 8.9 9.5 14.34 22.27 14.34 36.32z"/><path fill="none" stroke="#fff" stroke-miterlimit="10" stroke-width=".992" d="m182.11 197.11c0 29.37-23.81 53.17-53.18 53.17-15.32 0-29.14-6.48-38.84-16.85-8.9-9.5-14.34-22.27-14.34-36.32 0-29.37 23.81-53.18 53.18-53.18 7.62 0 14.85 1.6 21.4 4.48 18.71 8.24 31.78 26.94 31.78 48.7z"/><ellipse cx="88.96" cy="181.6" class="st5" rx="6.92" ry="2.97" transform="rotate(-84.641 88.966 181.603)"/><ellipse cx="121.17" cy="180.72" class="st5" rx="6.92" ry="2.97" transform="rotate(-84.641 121.177 180.72)"/><path fill="#646464" d="m95.29 192.33c-0.05-0.65 0.15-1.29 0.57-1.8 0.78-0.95 2.39-2.29 5.38-2.44 2.63-0.13 4.35 0.64 5.35 1.35 0.75 0.52 1.13 1.43 1.03 2.33-0.34 3.22-1.67 11.43-6.33 11.47-4.83 0.05-5.81-8.2-6-10.91z"/><path d="m160.99 112.95-2.71 3.63c-2.62-0.65-5.29-1.11-8-1.38l2.56-14.86c0.06 0 0.11 0 0.17 0.01h0.01l7.9 6.13-0.1 6.35z" class="st7"/><path d="m57.82 222.62-12.32-5.17v-.04l11.74-1.7c.09 2.34.28 4.64.58 6.91zM71.85 255.82l-.18.15-1.26 2.44-.09-.04-5.18 3.29-9.22-3.6c-.04-.06-.08-.12-.11-.19l11.91-7.53c1.26 1.92 2.63 3.75 4.13 5.48z" class="st1"/><path d="m197.48 116.9-1.77 2.55-6.95 10-0.01 0.01-0.73 0.4-8.57-2.6 9.65-13.78h0.01l1.12-1.61c0.12 0.06 0.24 0.13 0.35 0.21l0.01 0.01z" class="st7"/><path fill="#32bbcb" stroke="#fff" stroke-linecap="round" stroke-linejoin="round" stroke-miterlimit="10" stroke-width=".992" d="M211.03 145.57 211.29 145.75 219.75 151.64 213.91 155.67 207.49 160.1 196.89 154.8 196.89 154.78z"/><path fill="#019cb2" stroke="#fff" stroke-linecap="round" stroke-linejoin="round" stroke-miterlimit="10" stroke-width=".992" d="m221.77 194.58v0.01c-0.02 0.09-0.03 0.17-0.05 0.26l-8.72 3.05-5 1.74-9.23-7.76c0-0.02 0.01-0.03 0-0.05l15.99-3.77 0.19-0.04z"/><path d="M202.83 242.01 194.3 240.67 189.81 239.96 181.85 233.24 196.4 237.46z" class="st10"/><path d="m145.6 275.68-1.82 7.56-1.45 6.03c-0.03 0.01-0.05 0.02-0.07 0.02l-6.76-3.03-0.35-0.16-0.57-15.64 0.12-0.03z" class="st1"/><path d="m150.12 272.8-4.52 2.88-10.9-5.25c3.95-1.36 7.87-3.05 11.72-5.08l0.05 0.1z" class="st1"/><path d="M184.38 248.02 185.94 251.69 189.05 259 181.71 256.44 180.91 256.16 173.89 243.47z" class="st10"/><path d="m189.81 239.96-5.43 8.06-10.49-4.55-0.03-0.02c2.8-3.19 5.46-6.61 7.94-10.24l0.05 0.03z" class="st10"/><path d="m214.76 188.06c1.3-9.8 1.24-19.41-0.15-28.46l-7.12 0.55-9.06 0.71c-0.43-2.06-0.94-4.08-1.54-6.06l-0.01-0.01h0.01v-0.01l14.14-9.21 0.26 0.18c-2.72-8.2-6.71-15.69-11.92-22.14l-10.61 5.84-0.01 0.01-0.36 0.51-0.37-0.11-3.77 2.07-0.08 0.07c-1.49-1.64-3.09-3.19-4.8-4.64l0.08-0.1 9.65-13.78h0.01l1.12-1.61c-4.47-2.66-19.14-8.19-21.77-8.95l-7.47 10.03-2.71 3.63c-2.62-0.65-5.29-1.11-8-1.38l2.56-14.86c-9.46-0.43-19.23 1.03-28.86 4.24l-1.43 13.84 0.09 0.27c-2.15 0.73-4.29 1.56-6.41 2.5-1.64 0.71-3.27 1.49-4.88 2.33l-0.23-0.43-4.9-10.53c-8.83 5.05-17.28 11.58-24.97 19.44l0.18 0.18 4.08 11.13c-2.91 3.12-5.69 6.48-8.29 10.06l-0.08-0.03-9.5-4.83c-1.17 1.7-2.31 3.43-3.42 5.21-4.08 6.54-7.48 13.26-10.21 20.05l0.07 0.03 9.36 5.09c-1.24 3.27-2.28 6.54-3.14 9.82v0.01l-11.57 1.37c-2.28 9.25-3.34 18.45-3.23 27.32l11.74-1.7c0.09 2.34 0.28 4.64 0.58 6.91 0.09 0.7 0.19 1.39 0.3 2.08l-11.1 8.62c1.64 8.87 4.58 17.17 8.79 24.55l11.91-7.53c1.26 1.92 2.63 3.75 4.13 5.48l-0.18 0.15-1.26 2.44-5.84 11.3-0.09 0.08c3.74 4.08 8.03 7.68 12.85 10.69 3.19 1.99 6.5 3.66 9.92 5.01l0.06-0.15 7.76-13.74 0.04-0.12c2.98 0.98 6.03 1.7 9.15 2.14l0.03 2.31 0.16 13.39 1.8 0.5h0.01c9.55 0.73 19.45-0.52 29.24-3.56l-0.35-0.16-0.57-15.64v-0.09l0.12 0.06c3.95-1.36 7.87-3.05 11.72-5.08l0.05 0.1 3.65 7.35 2.74 5.53 0.77 0.14c10-5.52 19.54-12.93 28.08-22.03l-0.8-0.28-7.02-12.69-0.03-0.02c2.8-3.19 5.46-6.61 7.94-10.24l0.05 0.03 14.55 4.22c0.2-0.29 0.38-0.59 0.57-0.89 5.73-9.18 10.12-18.72 13.2-28.31l-0.28-0.16-4.19-1.82-9.19-3.99-0.1-0.03c0.99-3.47 1.78-6.93 2.36-10.38l-0.05-0.04 0.05-0.01zm-43.37 32.6c-17.37 28.7-48.16 42.57-72.29 34-2.65-0.93-5.21-2.14-7.67-3.63-24.9-15.07-29.46-53.09-10.19-84.93 17.14-28.31 47.35-42.2 71.33-34.32h0.02c2.98 0.98 5.86 2.3 8.61 3.96 24.9 15.07 29.46 53.09 10.19 84.92z" class="st7"/><path fill="#3fcadd" stroke="#fff" stroke-linecap="round" stroke-linejoin="round" stroke-miterlimit="10" stroke-width=".992" d="m116.23 121.19c-1.64 0.71-3.27 1.49-4.88 2.33l-0.23-0.43-4.9-10.53c0.05-0.02 0.09-0.05 0.14-0.08l9.65 8.21z"/><path d="m104.29 275.93-8.84 12.13-0.01 0.05c-0.95-0.23-1.9-0.49-2.84-0.77-1.81-0.53-3.59-1.15-5.35-1.85l0.06-0.15 7.76-13.74 0.04-0.12c2.98 0.98 6.03 1.7 9.15 2.14z" class="st1"/><path fill="#4acada" stroke="#fff" stroke-linecap="round" stroke-linejoin="round" stroke-miterlimit="10" stroke-width=".992" d="m188.02 129.86-3.77 2.07-0.08 0.07c-1.49-1.64-3.09-3.19-4.8-4.64l0.08-0.1z"/><path d="m142.26 289.29c-8.54 2.56-17.15 3.76-25.52 3.48v-0.04l-10.48-2.91c9.55 0.73 19.45-0.52 29.24-3.56z" class="st1"/><path d="m189.29 259.22c-8 8.53-16.89 15.57-26.2 20.97h-0.01l-9.45-1.72c10-5.52 19.54-12.93 28.08-22.03l7.34 2.56z" class="st10"/><path fill="#009cb3" stroke="#fff" stroke-linecap="round" stroke-linejoin="round" stroke-miterlimit="10" stroke-width=".992" d="m208 199.64s-1.33 5.11-2.27 6.56l-0.03 0.08-9.19-3.99-0.1-0.03c0.99-3.47 1.78-6.93 2.36-10.38z"/><path fill="#33bccc" stroke="#fff" stroke-linecap="round" stroke-linejoin="round" stroke-miterlimit="10" stroke-width=".992" d="m221.77 194.58-6.82-6.56-0.19 0.04c1.3-9.8 1.24-19.41-0.15-28.46l0.08-0.01 7.94 6.16c1.08 9.22 0.8 18.95-0.86 28.83z"/><path fill="#43ccd4" stroke="#fff" stroke-linecap="round" stroke-linejoin="round" stroke-miterlimit="10" stroke-width=".992" d="m207.49 160.1v0.05l-9.06 0.71c-0.43-2.06-0.94-4.08-1.54-6.06z"/><path fill="#4ac6d8" stroke="#fff" stroke-linecap="round" stroke-linejoin="round" stroke-miterlimit="10" stroke-width=".992" d="m219.82 151.62-0.07 0.02-8.46-5.89c-2.72-8.2-6.71-15.69-11.92-22.14l0.04-0.02 11.73 8.62c3.77 5.88 6.67 12.41 8.68 19.41z"/><path fill="#039bb2" stroke="#fff" stroke-linecap="round" stroke-linejoin="round" stroke-miterlimit="10" stroke-width=".992" d="m217.33 212.28c-3.05 9.17-7.31 18.29-12.79 27.07-0.56 0.9-1.13 1.78-1.71 2.66l-6.43-4.55c0.2-0.29 0.38-0.59 0.57-0.89 5.73-9.18 10.12-18.72 13.2-28.31l6.92 3.94z"/></g><linearGradient id="e" x1="246.12" x2="308.23" y1="170.51" y2="232.62" gradientUnits="userSpaceOnUse"><stop offset=".25" stop-color="#45C8DA"/><stop offset=".45" stop-color="#73d5e3"/><stop offset=".6" stop-color="#a2e3ec"/><stop offset=".798" stop-color="#d0f1f5"/><stop offset="1" stop-color="#f3fbfc"/></linearGradient><linearGradient id="d" x1="313.3" x2="353.85" y1="177.35" y2="217.9" gradientUnits="userSpaceOnUse"><stop offset=".25" stop-color="#45C8DA"/><stop offset=".45" stop-color="#73d5e3"/><stop offset=".6" stop-color="#a2e3ec"/><stop offset=".8" stop-color="#d0f1f5"/><stop offset="1" stop-color="#f3fbfc"/></linearGradient><linearGradient id="a" x1="499.94" x2="543.73" y1="165.77" y2="209.57" gradientUnits="userSpaceOnUse"><stop offset=".25" stop-color="#45C8DA"/><stop offset=".45" stop-color="#73d5e3"/><stop offset=".6" stop-color="#a2e3ec"/><stop offset=".8" stop-color="#d0f1f5"/><stop offset="1" stop-color="#f3fbfc"/></linearGradient><linearGradient id="c" x1="365.96" x2="413.09" y1="174.9" y2="222.02" gradientUnits="userSpaceOnUse"><stop offset=".25" stop-color="#45C8DA"/><stop offset=".45" stop-color="#73d5e3"/><stop offset=".6" stop-color="#a2e3ec"/><stop offset=".8" stop-color="#d0f1f5"/><stop offset="1" stop-color="#f3fbfc"/></linearGradient><g transform="translate(-47.55 -181.42)scale(1.8791)"><path fill="url(#a)" d="m550.57 173.12v7.49l-3.74 3.74h-17.1v39.22l-3.35 3.35h-8.59l-3.35-3.35v-39.22h-18.11l-3.74-3.74v-7.49l3.74-3.74h50.5z"/><linearGradient id="b" x1="440.32" x2="480.69" y1="177.8" y2="218.18" gradientUnits="userSpaceOnUse"><stop offset=".25" stop-color="#45C8DA"/><stop offset=".45" stop-color="#73d5e3"/><stop offset=".6" stop-color="#a2e3ec"/><stop offset=".8" stop-color="#d0f1f5"/><stop offset="1" stop-color="#f3fbfc"/></linearGradient><path fill="url(#b)" d="m460.51 169.44c-15.77 0-28.55 12.78-28.55 28.55s12.78 28.55 28.55 28.55 28.55-12.78 28.55-28.55c-0.01-15.77-12.79-28.55-28.55-28.55zm16.06 31.14h-3c-0.17 0.97-0.44 1.91-0.82 2.8l2.6 1.5c-0.55 1.23-1.24 2.38-2.05 3.42l-2.6-1.51c-0.61 0.74-1.3 1.41-2.05 1.99l1.5 2.6c-1.06 0.79-2.22 1.45-3.45 1.97l-1.5-2.61c-0.87 0.34-1.79 0.59-2.74 0.74v2.99c-0.67 0.09-1.36 0.13-2.05 0.13-0.65 0-1.3-0.04-1.93-0.11v-3c-0.96-0.14-1.88-0.38-2.75-0.71l-1.5 2.61c-1.24-0.51-2.41-1.17-3.48-1.95l1.5-2.59c-0.77-0.59-1.47-1.27-2.09-2.01l-2.6 1.5c-0.82-1.04-1.52-2.19-2.06-3.41l2.59-1.49c-0.39-0.91-0.67-1.86-0.84-2.86h-3c-0.11-0.76-0.17-1.53-0.17-2.31 0-0.56 0.03-1.12 0.08-1.67h3c0.12-1.04 0.37-2.03 0.72-2.98l-2.6-1.5c0.5-1.24 1.16-2.41 1.94-3.48l2.59 1.5c0.64-0.83 1.38-1.58 2.19-2.24l-1.5-2.6c1.05-0.8 2.2-1.48 3.43-2.02l1.5 2.6c0.96-0.39 1.98-0.67 3.05-0.82v-3c0.63-0.07 1.28-0.11 1.93-0.11 0.69 0 1.38 0.04 2.05 0.13v2.99c1.06 0.17 2.07 0.46 3.03 0.85l1.5-2.59c1.22 0.54 2.37 1.22 3.41 2.04l-1.5 2.59c0.8 0.66 1.52 1.41 2.14 2.23l2.59-1.5c0.78 1.07 1.43 2.24 1.93 3.49l-2.6 1.5c0.34 0.93 0.58 1.91 0.7 2.92h3c0.05 0.55 0.08 1.11 0.08 1.67 0 0.78-0.06 1.55-0.17 2.31z"/><circle cx="460.41" cy="198.27" r="10.14" fill="#d9eff4"/><ellipse cx="457.15" cy="195.73" class="st22" rx=".63" ry="1.27"/><ellipse cx="463.5" cy="195.73" class="st22" rx=".63" ry="1.27"/><path d="m459.61 198.33h1.49c0.39 0 0.63 0.42 0.44 0.76l-0.72 1.27c-0.19 0.34-0.67 0.34-0.87 0.01l-0.77-1.27c-0.21-0.33 0.04-0.77 0.43-0.77z" class="st22"/><path fill="url(#c)" d="m396.05 169.76h-24.94c-1.47 1.47-2.3 2.29-3.76 3.76v49.89c1.46 1.47 2.29 2.29 3.76 3.76h24.94c7.93 0 15.11-3.21 20.3-8.41 5.2-5.19 8.41-12.37 8.41-20.3 0-15.85-12.85-28.7-28.71-28.7zm0 43.24h-11.3c-1.26-1.27-1.97-1.97-3.23-3.23v-22.61l3.23-3.23h10.88c7.82 0 14.55 6 14.94 13.8 0.41 8.35-6.26 15.27-14.52 15.27z"/><path fill="url(#d)" d="m362.11 193.93c-1.83-14.1-13.89-24.99-28.49-24.99-15.87 0-28.74 12.86-28.74 28.73s12.87 28.74 28.74 28.74c6.98 0 13.37-2.49 18.34-6.62l-0.15-4.18-7.1-7.39h-2.54c-2.34 1.89-5.31 3.03-8.55 3.03-6.14 0-11.32-4.07-13-9.66h37.82l3.9-3.11c0.02-0.27 0.02-0.54 0.02-0.81 0-1.27-0.08-2.52-0.25-3.74zm-41.57 0.08c1.6-5.72 6.85-9.92 13.08-9.92s11.48 4.2 13.07 9.92z"/><path fill="url(#e)" d="M296.48 169.47 299.39 173.11 293.17 223.95 290.42 227.45 277.35 227.45 270.81 191.26 264.08 227.17 251.39 227.17 248.74 223.66 241.73 172.98 245.33 169.47 256.6 169.57 261.05 202.63 267.21 169.66 274.79 169.66 280.95 202.73 285.02 169.47z"/></g><path d="M378.86 263.2c1-.25 1.87-.49 2.76-.69.14-.03.38.04.45.14 1.03 1.48 2.54 1.92 4.23 2.01 1.57.08 2.88-.46 3.78-1.75.3-.43.51-.99.54-1.51.07-1.31.02-2.62.02-4.01-.11.08-.18.12-.22.17-1.19 2.06-3.97 2.79-6.04 2.42-2.23-.39-3.97-1.51-5.09-3.5-.72-1.28-1.21-2.66-1.25-4.13-.04-1.53-.13-3.1.13-4.6.45-2.57 1.66-4.72 4.13-5.96 2.13-1.07 6.14-1.15 8 1.41.06.08.13.16.29.36v-2.07c1 0 1.97-.01 2.94.02.11 0 .31.26.31.39-.02 6.74-.03 13.48-.09 20.22-.01 1.13-.57 2.1-1.32 2.94-1.36 1.54-3.09 2.26-5.11 2.44-2.01.18-3.92-.15-5.71-1.08-1.32-.67-2.18-1.77-2.75-3.22zm2.11-12.49c.26 1.17.43 2.45.85 3.65.69 1.93 2.75 3.2 4.66 2.91 2.03-.31 3.37-1.47 3.77-3.65.37-2 .34-4.05.02-6.07-.43-2.64-2.28-4.02-4.85-3.56-1.95.35-3.3 1.46-3.8 3.42-.27 1.04-.42 2.11-.65 3.3zM301.35 259.6h-3.12v-.86c-.03-3.94-.06-7.88-.1-11.83-.01-1.33-.68-2.31-1.88-2.76-1.31-.49-2.61-.35-3.68.73-.72.72-1.03 1.56-1.03 2.56.01 3.8 0 7.59 0 11.39v.77h-3.09v-18.08h2.69v1.44c1.37-1.38 3-1.99 4.86-1.88 1.93.11 3.33 1.18 4.31 2.65.75-.66 1.43-1.42 2.26-1.95 2.27-1.45 5.61-.63 7.25 1.55.77 1.03 1.22 2.17 1.22 3.46.03 4.07.04 8.14.05 12.21 0 .19-.03.38-.06.59h-3.03c-.02-.4-.05-.8-.05-1.19 0-3.73-.06-7.46.03-11.19.05-1.99-1.9-3.8-4.06-3.18-1.79.51-2.53 1.74-2.54 3.24-.03 3.82-.02 7.63-.03 11.45v.88zM264.34 251.09h-6.76c0-.88-.02-1.69.02-2.51.01-.11.27-.31.42-.31 3.02-.02 6.03-.02 9.05 0 .15 0 .44.23.43.34-.09 2.28-.59 4.47-1.65 6.49-.94 1.79-2.32 3.15-4.17 3.98-3.29 1.49-6.56 1.39-9.73-.31-2.07-1.11-3.46-2.88-4.31-5.05-1.07-2.74-1.3-5.59-.88-8.47.19-1.32.45-2.68.94-3.91 1.08-2.72 2.98-4.7 5.81-5.7 1.21-.43 2.46-.62 3.73-.62 1.77.01 3.43.46 4.96 1.33 1.9 1.07 3.23 2.66 4.15 4.65-.82.37-1.62.76-2.44 1.09-.11.04-.41-.15-.48-.3-.68-1.34-1.66-2.39-3.01-3.05-1.53-.74-3.13-.93-4.81-.58-2.86.59-4.47 2.47-5.3 5.12-1.03 3.31-.94 6.59.48 9.77 1.41 3.16 3.78 4.23 6.93 4.07 3.02-.16 5.01-1.87 6.12-4.63.09-.21.18-.43.25-.64.08-.21.14-.43.25-.76zM328.04 253.92c.87.57 1.72 1.12 2.61 1.69-1.7 2.24-3.63 4-6.61 4.3-2.21.22-4.33.09-6.24-1.1-2.07-1.28-3.2-3.21-3.65-5.6-.38-2.01-.38-4 .15-5.97.47-1.76 1.27-3.36 2.75-4.5 1.64-1.26 3.54-1.73 5.59-1.69 2.2.04 4.15.75 5.72 2.31.95.95 1.63 2.12 1.92 3.44.3 1.37.43 2.78.63 4.17.06.43-.09.61-.55.61-4.16-.01-8.33 0-12.49 0h-.63c0 1.88.92 4.05 2.5 4.91 1.49.81 3.08.83 4.68.46 1.68-.38 2.61-1.73 3.62-3.03zm-.51-5.19c-.5-3.82-3.32-5.26-6.38-4.72-2.38.41-3.8 2.71-3.83 4.72h10.21zM344 251.63c-.26 1.82 1.05 4.33 2.67 5.04 1.49.65 3.04.67 4.6.24 1.6-.44 2.49-1.7 3.44-2.97.87.56 1.71 1.1 2.61 1.68-1.77 2.21-3.64 4.04-6.64 4.3-2.01.17-3.91.08-5.74-.83-1.92-.95-3.11-2.56-3.76-4.51-.92-2.76-.92-5.58.1-8.33 1.03-2.79 3.01-4.48 5.98-5.02 2.05-.37 3.99-.16 5.85.76 2.09 1.04 3.31 2.81 3.88 4.99.34 1.27.4 2.62.57 3.94.06.49-.09.69-.66.68-4.12-.03-8.24-.02-12.36-.02-.18.01-.37.03-.54.05zm10.18-2.9c-.58-3.99-3.14-4.91-5.44-4.83-3.48.13-4.62 2.79-4.77 4.83h10.21zM437.53 253.94c.87.57 1.69 1.11 2.55 1.68-1.67 2.22-3.56 3.96-6.46 4.29-1.76.2-3.45.13-5.12-.47-1.82-.65-3.19-1.88-3.99-3.58-1.62-3.45-1.66-6.99-.04-10.47 1.29-2.78 3.63-4.07 6.6-4.28 1.66-.12 3.28.06 4.79.86 2.05 1.08 3.26 2.8 3.92 4.97.46 1.49.57 3.02.49 4.65h-13.53c-.09 1.84.83 4.09 2.61 5.01 1.46.76 3.04.78 4.63.34 1.63-.47 2.58-1.75 3.55-3zm-10.74-5.21h10.14c-.4-3.22-2.19-4.79-5.12-4.83-3.19-.05-4.81 2.12-5.02 4.83zM270.61 245.47c.29-1.2 1.03-2 1.87-2.72 2.1-1.78 4.58-2.16 7.1-1.41 2.38.71 3.99 2.45 4.53 4.93.31 1.39.48 2.84.52 4.27.08 2.99.02 5.98.02 9.03h-2.58v-2.56c-.98 1.27-2.13 2.06-3.49 2.51-2.16.71-4.31.91-6.34-.4-1.71-1.1-2.6-3.27-2.25-5.28.39-2.2 1.81-3.51 3.8-4.15 1.98-.64 4.03-1.08 6.06-1.54 1.66-.37 1.8-1.33.9-2.59-1.72-2.39-5.59-2.37-7.12.64-.24.47-.38.52-.83.26-.68-.38-1.42-.65-2.19-.99zm11.3 5.1c-1.86.45-3.65.82-5.4 1.32-.89.26-1.78.65-2.54 1.18-.82.56-.96 1.58-.63 2.5.37 1.01 1.12 1.5 2.15 1.59 1.97.18 3.63-.48 4.86-2.03 1.01-1.29 1.62-2.76 1.56-4.56zM408.81 259.62c-.92 0-1.81.02-2.69-.02-.14-.01-.29-.25-.4-.41-.05-.07-.01-.21-.01-.31 0-5.58-.01-11.15-.01-16.73 0-.19.02-.37.04-.6h2.77v2.09c.18-.15.3-.22.38-.31 1.54-1.84 3.53-2.42 5.85-2.12 3.37.44 5.86 3.68 5.81 6.87-.06 3.63-.01 7.25-.02 10.88 0 .21-.02.41-.03.67-.93 0-1.81.02-2.7-.02-.13 0-.3-.22-.36-.37-.06-.14-.02-.33-.02-.5v-11.07c0-1.33-1.14-2.92-2.54-3.42-2.21-.8-4.7.16-5.61 2.34-.29.68-.43 1.47-.43 2.21-.05 3.58-.03 7.16-.03 10.82zM375.25 259.6h-3.07v-.77-10.62c0-1.87-.85-3.25-2.58-3.94-1.48-.6-2.93-.35-4.25.6-1.4 1-1.78 2.45-1.79 4.04-.03 3.54-.01 7.08-.01 10.67h-3.07v-18.02h2.75v2.11c.51-.47.93-.91 1.41-1.29 1.46-1.17 3.13-1.43 4.95-1.16 2.11.31 3.58 1.53 4.7 3.22.83 1.25 1.01 2.71 1.01 4.19-.01 3.52-.01 7.04-.01 10.56-.01.12-.03.24-.04.41zM401.26 259.6h-3.06v-.65c0-5.62.02-11.24 0-16.85 0-.49.14-.61.61-.59.8.04 1.6.01 2.45.01v18.08zM401.79 236.64c-.01 1.12-.87 2-2.02 1.97-1.34-.03-1.99-.83-2.07-2.09-.07-1.11.94-2 2.1-1.98 1.16.01 2 .91 1.99 2.1z" class="st24" transform="translate(-47.55 -160.72)scale(1.8791)"/></svg>