<svg xmlns="http://www.w3.org/2000/svg" xml:space="preserve" width="1024" height="1024"><path fill="none" d="M160.94 136.17c-2.67-1.61-5.51-2.92-8.44-3.89-13.67-.84-27.88 4.27-40.2 13.81 5.24-1.71 10.82-2.65 16.63-2.65 7.51 0 14.78 1.52 21.6 4.52 17.23 7.59 29.06 23.54 31.57 41.84.86001-6.01.97-12 .27001-17.83-1.91-15.87-9.52-28.59-21.43-35.8zM141.51 249.28c-4.04.97-8.25 1.5-12.59 1.5-14.8 0-29.09-6.2-39.2-17.01-4.36-4.66-7.8-9.99-10.23-15.74v.03c1.5 15.81 8.54 28.65 19.82 36.14 13.39 4.75 28.48 2.61 42.2-4.92z" class="st26" transform="translate(-150.14 -456.28)scale(4.9265)"/><path fill="#039bb3" d="m91.693 250.61c0.62 0.37 1.24 0.73 1.88 1.07 0.21 0.11 0.42 0.21 0.64 0.32 0.43 0.22 0.85 0.44 1.29 0.64 0.02 0.01 0.05 0.02 0.07 0.03-9.66-7.85-15.67-19.95-17.05-34.51-0.1-1.07-0.17-2.15-0.22-3.23-1.99-5.66-3.04-11.67-3.04-17.81 0-22.72 14.19-42.17 34.17-49.99 11.85-9.9 25.67-15.66 39.19-15.92-0.11-0.02-0.22-0.05-0.32-0.07-0.6-0.13-1.2-0.25-1.8-0.36-0.19-0.03-0.38-0.07-0.57-0.1-0.74-0.12-1.48-0.23-2.22-0.31-0.11-0.01-0.23-0.02-0.34-0.03-0.65-0.07-1.3-0.12-1.96-0.16-0.2-0.01-0.41-0.02-0.61-0.03-0.76-0.04-1.52-0.06-2.28-0.06-20.88 0-43.17 13.7-56.84 36.29-19.11 31.54-14.62 69.33 10.01 84.23z" class="st27" transform="translate(-150.14 -456.28)scale(4.9265)"/><path fill="#95d0d4" d="m170.96 220.41c5.18-8.56 8.73-17.72 10.52-26.92-1.31-19.05-12.89-36.01-30.32-44.14 8.4 9.4 13.51 21.79 13.51 35.39 0 29.37-23.81 53.18-53.18 53.18-7.17 0-13.99-1.43-20.23-4 9.87 10.1 23.53 15.87 37.67 15.87 5.56 0 10.93-0.87 15.96-2.48 10.01-6.25 19.12-15.41 26.07-26.9z" transform="translate(-150.14 -456.28)scale(4.9265)"/><path fill="#c0e7ea" d="m164.67 184.74c0-13.6-5.11-25.99-13.51-35.39-0.34-0.16-0.69-0.33-1.04-0.48-6.7-2.94-13.83-4.44-21.2-4.44-29.05 0-52.68 23.63-52.68 52.68 0 13.42 5.04 26.2 14.21 35.98 0.26 0.28 0.54 0.54 0.81 0.82 6.24 2.57 13.06 4 20.23 4 29.37 0.01 53.18-23.8 53.18-53.17zm-46.46-4.29c0.36-3.8 1.97-6.76 3.61-6.61 1.63 0.15 2.67 3.36 2.31 7.16s-1.97 6.76-3.61 6.61c-1.63-0.15-2.66-3.36-2.31-7.16zm-26.29 1.44c-0.36 3.8-1.97 6.76-3.61 6.61-1.63-0.15-2.67-3.36-2.31-7.16s1.97-6.76 3.61-6.61c1.63 0.15 2.67 3.35 2.31 7.16zm9.38 21.37c-4.84 0.04-5.82-8.21-6.01-10.92-0.05-0.65 0.15-1.29 0.57-1.8 0.78-0.95 2.39-2.29 5.38-2.44 2.63-0.13 4.35 0.64 5.35 1.35 0.75 0.52 1.13 1.43 1.03 2.33-0.34 3.23-1.67 11.44-6.32 11.48z" transform="translate(-150.14 -456.28)scale(4.9265)"/><path fill="#666364" d="M89.613 174.72c-1.63-.15-3.25 2.81-3.61 6.61s.68 7.01 2.31 7.16 3.25-2.81 3.61-6.61-.68-7-2.31-7.16zM120.53 187.61c1.63.15 3.25-2.81 3.61-6.61s-.68001-7.01-2.31-7.16c-1.63-.15-3.25 2.81-3.61 6.61-.35999 3.8.67001 7.01 2.31 7.16z" class="st5" transform="translate(-150.14 -456.28)scale(4.9265)"/><path fill="#646464" d="m106.59 189.46c-1.01-0.7-2.73-1.47-5.35-1.35-2.99 0.14-4.61 1.49-5.38 2.44-0.41 0.51-0.61 1.14-0.57 1.8 0.19 2.7 1.16 10.96 6.01 10.92 4.65-0.04 5.98-8.25 6.33-11.47 0.09-0.92-0.29-1.82-1.04-2.34z" transform="translate(-150.14 -456.28)scale(4.9265)"/><path fill="#45c8da" d="m153.21 101.13-2.35 13.64c2.44 0.27 4.86 0.69 7.22 1.26l2.27-3.04c-0.01-0.05-0.02-0.1-0.02-0.15l0.1-6.1z" class="st29" transform="translate(-150.14 -456.28)scale(4.9265)"/><path fill="#039bb3" d="m56.773 216.29-9.5 1.38 9.95 4.18c-.06-.51-.11-1.04-.16-1.56-.03-.31-.07-.62-.09-.94-.09-1.02-.16-2.03-.2-3.06zM67.573 251.03l-10.81 6.84 8.32 3.24 4.97-3.16c.02-.01.03-.02.05-.03l1.09-2.11c-1.26-1.47-2.48-3.08-3.62-4.78z" class="st27" transform="translate(-150.14 -456.28)scale(4.9265)"/><path fill="#45c8da" d="m190.37 112.55-0.85 1.22c-0.02 0.03-0.04 0.05-0.06 0.07l-9.21 13.15 7.71 2.34 0.46-0.25 8.37-12.05z" class="st29" transform="translate(-150.14 -456.28)scale(4.9265)"/><path fill="#32bbcb" d="M214.37 159.52 225.8 151.63 217.94 146.16 204.79 154.73 211.91 158.29z" transform="translate(-184.22 -456.228)scale(4.9265)"/><path fill="#019cb2" d="M215.02 199.08 227.96 194.56 225.55 192.25 221.72 188.56 206.72 192.09z" transform="translate(-184.22 -456.228)scale(4.9265)"/><path fill="#0086a1" d="M196.94 239.49 207.73 241.19 203.1 237.91 190.87 234.36z" class="st32" transform="translate(-184.22 -456.228)scale(4.9265)"/><path fill="#039bb3" d="M148.9 288.62 151.94 275.95 142.02 271.17 142.55 285.77 147.31 287.91z" class="st27" transform="translate(-184.22 -456.228)scale(4.9265)"/><path fill="#039bb3" d="m146.2 266.03c-0.87 0.45-1.74 0.88-2.62 1.3-0.3 0.14-0.6 0.27-0.9 0.41-0.58 0.27-1.17 0.54-1.75 0.8-0.36 0.16-0.73 0.31-1.1 0.46-0.53 0.22-1.06 0.44-1.59 0.65-0.39 0.15-0.78 0.3-1.17 0.44-0.36 0.14-0.72 0.28-1.08 0.41l9.58 4.61 3.91-2.49z" class="st27" transform="translate(-150.14 -456.28)scale(4.9265)"/><path fill="#0086a1" d="M195.07 258.16 190.92 248.39 181.95 244.5 188.17 255.75z" class="st32" transform="translate(-184.22 -456.228)scale(4.9265)"/><path fill="#0086a1" d="m189.15 240.06-7.25-6.12c-0.46 0.67-0.93 1.33-1.41 1.99-0.1 0.13-0.19 0.27-0.28 0.4-0.6 0.82-1.21 1.63-1.83 2.43-0.12 0.16-0.25 0.32-0.38 0.48-0.5 0.63-0.99 1.26-1.5 1.88-0.22 0.27-0.44 0.52-0.66 0.79-0.39 0.46-0.77 0.93-1.16 1.38l9.53 4.13z" class="st32" transform="translate(-150.14 -456.28)scale(4.9265)"/><path fill="#45c8da" d="m153.54 277.96c0.88-0.49 1.75-1 2.62-1.52 0.34001-0.2 0.69-0.39 1.03-0.6 1.23-0.75 2.45-1.52 3.65-2.32 0.28999-0.19 0.56-0.39 0.84999-0.59 0.91-0.62 1.83-1.24 2.73-1.89 0.45-0.32 0.89-0.67 1.33-1 0.72999-0.54 1.45-1.07 2.17-1.63 0.49-0.39 0.98-0.79 1.47-1.19 0.65-0.53 1.31-1.05 1.95-1.59 0.51-0.43 1.01-0.88 1.51-1.32 0.61-0.53 1.22-1.06 1.83-1.61 0.51-0.47 1.01-0.95 1.51-1.43 0.58-0.55 1.17-1.09 1.74-1.66 0.5-0.49 0.99-1 1.48-1.5 0.47-0.48 0.95-0.96 1.42-1.45l-0.07-0.02c-0.12-0.04-0.21-0.12-0.27-0.23l-7-12.65c-0.05-0.07-0.09-0.15-0.1-0.23-0.02-0.14 0.01-0.29 0.1-0.4 2.82-3.21 5.47-6.64 7.9-10.19 0.15-0.22 0.44-0.28 0.67-0.14l14.13 4.09c0.07-0.11 0.15-0.22 0.22-0.33l0.15-0.24c0.69-1.11 1.37-2.23 2.03-3.36 0.23-0.4 0.45-0.8 0.67-1.2 0.42-0.73 0.84-1.47 1.24-2.21 0.26-0.47 0.5-0.95 0.75-1.43 0.36-0.67 0.72-1.34 1.06-2.02 0.25-0.5 0.49-1 0.73-1.51 0.32-0.66 0.65-1.32 0.96-1.99 0.24-0.51 0.46-1.02 0.69-1.53 0.3-0.66 0.61-1.33 0.89-1.99 0.22-0.52 0.43-1.04 0.64-1.56 0.28-0.67 0.56-1.33 0.82-2 0.21-0.52 0.39-1.04 0.59-1.57 0.26-0.68 0.52-1.35 0.76-2.03 0.19-0.52 0.36-1.05 0.54-1.58 0.21-0.61 0.42-1.22 0.62-1.83l-13.3-5.76c-0.26-0.08-0.41-0.35-0.33-0.61 0.25-0.87 0.48-1.73 0.7-2.6v-0.01c0.22-0.86 0.43-1.72 0.62-2.57 0.03-0.13 0.05-0.26 0.08-0.39 0.16-0.73 0.32-1.45 0.46-2.17 0.05-0.24 0.09-0.47 0.13-0.7 0.11-0.59 0.22-1.18 0.32-1.76-0.01-0.06-0.01-0.11 0-0.17 0.04-0.19 0.17-0.35 0.36-0.39l15.69-3.7c0.09-0.7 0.17-1.4 0.24-2.1 0.05-0.44 0.11-0.88 0.15-1.31 0.08-0.82 0.14-1.64 0.2-2.46 0.03-0.37 0.07-0.74 0.09-1.11 0.07-1.09 0.12-2.18 0.15-3.26 0-0.09 0.01-0.19 0.01-0.28 0.04-1.18 0.05-2.36 0.04-3.53 0-0.27-0.01-0.54-0.02-0.82-0.01-0.89-0.03-1.78-0.06-2.67-0.02-0.42-0.05-0.83-0.07-1.24-0.04-0.73-0.07-1.47-0.13-2.2-0.04-0.48-0.09-0.95-0.13-1.43-0.06-0.66-0.12-1.32-0.19-1.98-0.06-0.51-0.13-1.02-0.2-1.53-0.07-0.54-0.14-1.08-0.22-1.62l-15.71 1.22h-0.04c-0.03 0-0.05-0.01-0.07-0.01-0.03 0-0.06-0.01-0.09-0.02-0.01 0-0.02-0.01-0.04-0.02-0.09-0.04-0.17-0.1-0.22-0.19-0.03-0.05-0.05-0.1-0.06-0.16-0.22-1.03-0.45-2.06-0.71-3.06-0.11-0.44-0.24-0.86-0.36-1.3-0.15-0.56-0.3-1.12-0.46-1.66v-0.02c-0.02-0.08-0.02-0.17 0-0.26v-0.02c0.01-0.02 0-0.04 0.01-0.05s0.01-0.03 0.02-0.04c0.03-0.06 0.08-0.1 0.12-0.14 0.02-0.02 0.03-0.04 0.05-0.06l13.97-9.1c-0.15-0.44-0.3-0.87-0.46-1.3-0.16-0.46-0.33-0.92-0.5-1.37-0.21-0.55-0.43-1.08-0.66-1.62-0.17-0.43-0.34-0.86-0.53-1.28-0.24-0.56-0.5-1.11-0.76-1.67-0.18-0.38-0.35-0.77-0.53-1.15-0.3-0.62-0.62-1.23-0.94-1.84-0.16-0.3-0.3-0.6-0.46-0.9-0.48-0.9-0.99-1.78-1.5-2.65-0.07-0.11-0.14-0.22-0.21-0.33-0.46-0.75-0.92-1.5-1.41-2.23-0.2-0.3-0.41-0.59-0.61-0.88-0.36-0.53-0.73-1.07-1.11-1.59-0.25-0.34-0.5-0.66-0.76-0.99-0.31-0.41-0.62-0.82-0.94-1.22l-10.09 5.61-0.29 0.42c-0.12 0.17-0.34 0.25-0.55 0.19l-0.17-0.05-3.58 1.98c-0.05 0.04-0.1 0.07-0.16 0.09-0.02 0.01-0.03 0.01-0.05 0.01-0.04 0.01-0.07 0.02-0.11 0.02h-0.01c-0.04 0-0.08-0.01-0.12-0.03-0.02-0.01-0.05-0.01-0.07-0.02-0.06-0.03-0.12-0.07-0.16-0.12-1.48-1.63-3.08-3.18-4.75-4.59-0.21-0.17-0.23-0.48-0.07-0.69l0.08-0.1 9.63-13.75c0.02-0.03 0.04-0.05 0.06-0.07l0.76-1.09c-4.66-2.59-17.51-7.48-20.86-8.54l-9.97 13.38c-0.12 0.16-0.33 0.23-0.52 0.18-2.58-0.64-5.25-1.1-7.93-1.37-0.14-0.01-0.26-0.08-0.35-0.19-0.08-0.11-0.12-0.25-0.09-0.38l2.46-14.3c-9.08-0.33999-18.44 1.05-27.81 4.14l-1.39 13.42 0.06 0.17c0.09 0.26-0.05 0.54-0.31 0.63-2.18 0.74-4.32 1.58-6.37 2.48-1.61 0.7-3.24 1.47-4.85 2.32-0.07 0.04-0.14 0.05-0.21 0.05h-0.02c-0.01 0-0.03-0.01-0.04-0.01-0.06-0.01-0.12-0.02-0.17-0.05l-0.06-0.03c-0.07-0.04-0.13-0.1-0.17-0.17l-0.23-0.43-4.68-10.06c-8.63 4.99-16.73 11.31-24.09 18.78l4.07 11.1c0.06 0.18 0.02 0.37-0.1 0.51-2.93 3.15-5.71 6.51-8.25 10.01-0.13 0.18-0.36 0.25-0.57 0.17-0.02-0.01-0.12-0.04-0.13-0.05l-9.11-4.63c-1.12 1.64-2.16 3.22-3.16 4.83-3.91 6.27-7.28 12.85-10 19.56l9.04 4.92c0.22 0.12 0.31 0.38 0.23 0.61-1.21 3.18-2.26 6.47-3.12 9.76-0.05 0.2-0.21 0.37-0.42 0.39l-11.23 1.33c-2.14 8.81-3.2 17.65-3.14 26.3l11.18-1.62c0.14-0.02 0.28 0.02 0.39 0.11s0.17 0.22 0.18 0.36c0.09 2.35 0.28 4.66 0.58 6.86 0.09 0.7 0.19 1.38 0.3 2.07 0.03 0.18-0.04 0.36-0.19 0.47l-10.86 8.43c1.63 8.62 4.46 16.57 8.42 23.65l11.47-7.25c0.23-0.14 0.53-0.08 0.68 0.15 1.27 1.94 2.65 3.77 4.09 5.43 0.09 0.1 0.13 0.23 0.12 0.37s-0.07 0.26-0.18 0.34l-0.1 0.09-6.95 13.46c3.7 3.98 7.89 7.45 12.48 10.32 3.01 1.88 6.18 3.49 9.42 4.8l7.62-13.54c0.09-0.26 0.37-0.4 0.63-0.31 2.97 0.98 6.02 1.69 9.06 2.12 0.24 0.03 0.42 0.24 0.43 0.48l0.03 2.31v0.01l0.16 13.01 1.39 0.39c1.16 0.09 2.32 0.15 3.48 0.18 0.59 0.02 1.18 0 1.78 0 0.58 0 1.15 0.01 1.73 0 0.67-0.02 1.34-0.06 2.01-0.09 0.51-0.03 1.03-0.04 1.54-0.08 0.63-0.04 1.26-0.12 1.89-0.18 0.57-0.05 1.13-0.1 1.7-0.17 0.59-0.07 1.19-0.17 1.78-0.25 0.61-0.09 1.22-0.16 1.83-0.27 0.57-0.09 1.14-0.21 1.71-0.32 0.64-0.12 1.28-0.23 1.92-0.37 0.56-0.12 1.12-0.26 1.68-0.39 0.65-0.15 1.3-0.3 1.96-0.47 0.56-0.15 1.13-0.31 1.69-0.47 0.53-0.15 1.07-0.3 1.6-0.46l-0.6-15.56v-0.11c0-0.17 0.09-0.33 0.24-0.42 0.12-0.08 0.27-0.09 0.41-0.05 3.9-1.35 7.76-3.03 11.46-4.98 0.12-0.06 0.26-0.07 0.38-0.03 0.13 0.04 0.23 0.13 0.29 0.25l6.33 12.76zm-39.31-20.24c-5.23 0-10.37-0.84-15.29-2.59-2.68-0.94-5.29-2.18-7.76-3.67-25.1-15.19-29.74-53.59-10.37-85.61 17.01-28.09 47.22-42.61 71.86-34.55 0.02 0 0.05 0.01 0.07 0.02 3.02 0.99 5.96 2.34 8.71 4.01 12.18 7.37 19.95 20.35 21.89 36.54 1.94 16.15-2.16 33.57-11.54 49.06-13.9 22.98-36.38 36.79-57.57 36.79z" class="st29" transform="translate(-150.14 -456.28)scale(4.9265)"/><path fill="#3fcadd" d="m107.47 114.08 4.08 8.78c1.33-0.68 2.67-1.32 3.99-1.91z" transform="translate(-150.14 -456.28)scale(4.9265)"/><path fill="#039bb3" d="m95.363 272.09-7.42 13.15c1.61 0.62 3.22 1.17 4.8 1.64 0.85 0.25 1.68 0.48 2.47 0.68l8.58-11.77-0.02-1.72c-2.82-0.44-5.65-1.1-8.41-1.98z" class="st27" transform="translate(-150.14 -456.28)scale(4.9265)"/><path fill="#4acada" d="m181.19 128.31c1.06 0.97 2.08 1.99 3.06 3.05l2.49-1.37z" transform="translate(-150.14 -456.28)scale(4.9265)"/><path fill="#039bb3" d="m135.47 286.8c-8.41 2.59-16.73 3.84-24.86 3.72l6.26 1.74c0.03 0.01 0.05 0.02 0.08 0.03 7.78 0.24 15.8-0.8 23.88-3.09z" class="st27" transform="translate(-150.14 -456.28)scale(4.9265)"/><path fill="#0086a1" d="m188.5 259.34-6.65-2.32c-8.08 8.57-17.08 15.7-26.78 21.21l7.92 1.44c9.24-5.37 17.82-12.21 25.51-20.33z" class="st32" transform="translate(-150.14 -456.28)scale(4.9265)"/><path fill="#009cb3" d="m207.44 199.82-8.33-7c-0.54 3.01-1.24 6.08-2.1 9.15l8.47 3.67c0.74-1.4 1.68-4.79 1.96-5.82z" transform="translate(-150.14 -456.28)scale(4.9265)"/><path fill="#33bccc" d="m222.16 166.02-6.89-5.35c1.22 8.66 1.23 17.74 0.04 27.01l6.12 5.89c1.5-9.42 1.75-18.68 0.72999-27.55z" transform="translate(-150.14 -456.28)scale(4.9265)"/><path fill="#43ccd4" d="m205.76 159.79-8.07-4.04c0.42 1.48 0.80001 3.01 1.14 4.58z" transform="translate(-150.14 -456.28)scale(4.9265)"/><path fill="#4ac6d8" d="m201.79 125.96c4.19 5.76 7.52 12.3 9.92 19.48l7.26 5.05c-1.98-6.5-4.74-12.53-8.2-17.94z" transform="translate(-150.14 -456.28)scale(4.9265)"/><path fill="#039bb2" d="m210.45 209c-3.15 9.63-7.54 18.99-13.06 27.84l-0.15 0.24c-0.05 0.09-0.11 0.17-0.16 0.26l5.62 3.98c0.48-0.73 0.96-1.47 1.42-2.22 5.28-8.46 9.51-17.38 12.6-26.54z" transform="translate(-150.14 -456.28)scale(4.9265)"/></svg>